<?xml version="1.0" encoding="utf-8"?>
<!-- Generator: Adobe Illustrator 23.0.3, SVG Export Plug-In . SVG Version: 6.00 Build 0)  -->
<svg version="1.1" id="Layer_1" xmlns="http://www.w3.org/2000/svg" xmlns:xlink="http://www.w3.org/1999/xlink" x="0px"
	 y="0px"
	 viewBox="0 0 382 82" style="enable-background:new 0 0 382 82;" xml:space="preserve">
<style type="text/css">
	.st0{fill-rule:evenodd;clip-rule:evenodd;fill:#c99c3b;}
	.st1{filter:url(#Adobe_OpacityMaskFilter);}
	.st2{display:none;mask:url(#b_1_);}
	.st3{display:inline;fill-rule:evenodd;clip-rule:evenodd;fill:#787070;}
</style>
	<g>
	<g>
		<path class="st0" d="M121,30c-0.9-0.2-1.5,0-2,0c-0.1,0.6-0.8,0.8-1,1h-3l10-10c0.1-0.1,0.1-1,0-2c-0.8,0.1-1.2-0.1-2,0l-19,19
			c0-0.1-0.9-1.3,1-3c0.2-0.5,2-2.2,4-4l-14-1v-9c0.4-0.5-2.9,2.1-3,7c-0.2,1.7-0.4,6,0,9c-0.5,2.6-1.3,5.1-2,6c1.5-0.3,3-0.5,5-1h4
			c10.2,0.8,13.3-1.4,17-4c2.1-2.3,8.2-8.1,8-8H121z M86,44v-1c-5.1,2.1-11.5,3-19,3c-7.7-0.6-14.6-1.3-20-3c1.9,2.2,3.4,4.7,4,7
			c2.6,0.7,4.9,1,7,1C78.3,51,85.8,44.6,86,44z M36,56c0.1-0.1,2.8-1.7,4-2c2.5-2,3.9-3,4-4c0,0.3,0,0.2,0,0c-0.2,0-0.5-0.5-5,2
			c-0.9,0.5-3.9,2.3-4,2C35.4,54.9,35.7,55.4,36,56z M34,53c3.2-5.7,3.2-6.7,3-7c-0.6-0.2-1.5,0.3-5,6C32.6,52.3,33.2,52.6,34,53z
			 M28,57c-1,0.2-1.8,1-2,2c-0.2,1.8,1.2,3.3,3,3c1-0.2,1.8-1,2-2C31.2,58.2,29.8,56.8,28,57z M26,65c-1.8-1.5-2.8-3.3-3-5
			c0.2-3.7,2.8-6.4,6-6c0.3-0.4,0.8-0.3,1,0c0-0.3,0.1-0.6,0-1c-0.7,0.1-1.3,0-2,0c-3.3,0-6,2.8-6,6C22,61.7,23.4,64,26,65
			C26,65.1,26.1,64.8,26,65z M29,51c0.4-0.1,0.7,0,1,0v-2c0-0.8,0-2.8,0-5c-0.3-2.6-0.6-3-1-3c-0.4,0-0.7,0.4-1,3c0,2.2,0,4.3,0,6v1
			C28.3,51,28.7,50.9,29,51z M50,54c3.9,14.7-7,28-22,28C14.2,82,8.6,70.2,9,70c2.6-0.9,5.7,9.4,19,9c8.7,0.4,15.8-4.7,19-12
			c0.9-2.2,1.5-5.3,1-8c0.4-1.7,0.1-3,0-3c-0.2-0.8-0.4-1-1-1c-0.2,0.1-0.5,0.5,0,1c-0.4,0.3,0,2.8-1,7l-9-3c-0.1,1.3-0.3,2.2-1,3
			c2.4,1.3,4.6,2.8,4,3c0.1,0.8-2.3-0.4-5-2c-0.1,1.2-0.8,1.9-2,2c1.6,2.5,2.5,4.1,3,4c0.6,2,2.2,4.7,2,5c-1.2,0.6-2.7-2.2-4-4
			c0.2-0.1-0.8-1.7-2-4c-0.8,0.6-1.8,0.9-3,1v4c0.3,2.4,0.3,5.6-1,6c-0.4-0.4-0.3-3.5,0-6c-0.3,0.2-0.3-1.7,0-4
			c-1.3-0.1-2.2-0.4-3-1c-1.3,2.3-2.2,3.9-2,4c-1.3,1.8-2.8,4.6-4,4c-0.3-0.3,1.3-2.9,2-5c0.4,0.1,1.4-1.5,3-4c-1.2-0.1-1.9-0.8-2-2
			c-0.7,0.5-1.9,1.2-2,2c-1.9,0.3-3.4,1-4,1c0-1,1.3-2,3-3c0.4-0.2,1.5-0.9,2-1c-0.8-1.1-1.1-2.3-1-4c-0.1-3,2.1-6.1,5-7l-1-2
			c-0.2-0.7-1.2-2.4-2-4c-1.7-2.3-2.2-2.4-3-2c0.3-0.2,0,0,1,3c0.4-0.1,1.5,2,1,2c0.5,0-3.2-1.8-8-2c-2,1.3-3.8,3.8-5,7
			c-0.3,1.6-0.5,3.2-2,3c0-9.1,11-22.7,27-20C41.6,39.1,48.3,45.5,50,54z M61,56c-3.2-0.5-5.7-0.8-8-1c0.3,1.4,0.4,2.9,0,5
			c0.4,0.9,0.3,2.3,0,4c3.2-0.1,6.9,0.1,11,0c3.5-0.3,6.7-0.7,10-1c-0.3-3.4,0.6-6.4,2-9C71.8,55.2,66.7,55.8,61,56z M68,19v-3
			c-2.1,0.3-4.4,0.2-6,0c-2.3,0.1-4.9,0-7,0l-1,27c0,0,1.5-0.2,2-3c-0.3,0.3,0.2-10,0-10h10l2-1l-9-1C59.7,24.2,60.9,19,68,19z
			 M8,40c0,0,14-7.3,21-15v-4c-1.9,2.9-7.2,9.5-21,18V40z M7,46H0v-4c23.2-15.6,30.4-29.8,30-30c2.8-0.6,18.7-1.3,33-1
			c13.9,0.6,29.3,2.6,32,3c0,0.7,0,2.3,0,3c-4.1-1.1-16.4-2.6-32-3c-12.8-0.6-24.3-0.2-30,0v21c-1.8-0.3-3.1-0.4-4,0
			C19.7,34.6,11.9,39.1,7,46z M49,18c0.6-0.5,1.2-0.8,2-2c-5.5,0-8.2,0-13,0l-1,18c3.3,2.6,8.9,4.4,14,5v-1c-7.3-0.9-7.4-7-7-9
			c-0.4-1.2,0.5-0.6,1-1c0.9,0.1,1.4-1.2,1-2c0.4-1.8,0.1-2.1,0-2c0.1-0.8,0.3-0.9,0-2c0.3-0.6-0.3-1.2-2-1c-4-0.2-3.3,3-3,5
			c-0.3,1.5-1.3,2.3-2,3V18C39.2,18.2,48,17.6,49,18z M85,19c1.4,0.4,2.3,0,3-1c-3.9-0.2-8.9-0.6-14-1l-1,23c4.7-0.3,10.5-1.7,14-3
			c-0.3-0.2,0.7-4.7,1-13c-0.5-0.1-1.3-1.1-3-1c-1.9-0.1-3,0.5-3,2c0,0.2,0.3,0.3,0,1c0.3,0-0.1,0.3,0,2c-0.1,0.9,0.2,2.2,1,2
			c0.7,0.5,1.8,0,2,1c0.8,1.5,0.2,3.1-1,4c-1.1,1-3.5,2.6-9,3l1-19C75.5,19.2,84.1,19.4,85,19z M90,63c0,1.8,0.7,3.1,2,4
			c-0.1,0-0.1,0,0,0c0,0,0,0,0,0c0.1-0.1,0.1-0.2,0,0c-0.8-1-1.2-2.1-1-3c-0.2-2.6,1.8-4.6,4-5c0.4,0.4,0.6,0.4,1,0
			c-0.1,0.5-0.1,0.5,0,0c-0.1,0.5,0,0.4,0,0c0,0.3,0,0.3,0,0c-0.6,0.1-1,0-2,0C92,59,90,61,90,63z M96,63c0-0.3-0.7-1-1-1
			c-1.3,0-2,0.7-2,1c0,1.3,0.7,2,2,2C95.3,65,96,64.3,96,63z M89,66c-0.8-0.5-0.9-1.2-1-2c0.1-3,2.3-5.5,5-6c0.2-1.9,0.4-3.7,1-4
			c0.4,0.3,0.6,2,1,4c0.3,0,0.8,0.1,1,0c1.1-0.8,1.6-1.7,2-2c0.7-1.6,2.2-4.4,3-4c0.7,0.5-0.9,3.2-2,5c0,0.1-0.5,1-1,2
			c0.3,0.4,0.7,0.8,1,1c1.9-0.7,3.9-1.7,4-1c0.5,0.3-1.3,1.5-3,3c0,0.2,0.2,0.7,0,1c1.6,0.3,2.6,0.3,3,0c1.8,0.3,5,0.2,5,1
			c0,0.9-3.2,0.9-5,1c-0.4-0.1-1.5-0.1-3,0c0.1,0.4-0.1,1,0,1c0.9,1.1,1.8,1.7,2,2c1.7,0.7,4.5,2.3,4,3c-0.3,0.8-3-0.9-5-2
			c0,0-0.9-0.5-2-1c-0.5,0.2-0.9,0.6-1,1c0.4,1.1,0.9,2.1,1,2c1,2,2.7,4.7,2,5c-0.8,0.6-2.3-2.2-3-4c-0.4-0.1-1-1.1-2-2
			c-0.2-0.2-0.7-0.1-1,0c-0.3,1.4-0.3,2.6,0,3c-0.3,1.8-0.2,5-1,5c-0.9,0-0.9-3.1-1-5v-3c-0.4-0.2-0.8-0.3-1-1c-1,1.8-1.7,2.9-2,3
			c-0.8,1.8-2.3,4.6-3,4c-0.8-0.3,0.8-3,2-5c-0.1,0.1,0.6-1,1-2c0-0.6-0.4-1-1-1c-1.4,0.6-3.6,1.8-4,1C84.7,68.5,86.8,67.3,89,66z
			 M367,62c-0.7-0.6-7.7-4.1-13-7c-4.7-2-5.7-6.1-5-11c-2.9,3.2-3,7.4-3,9c-1-0.3-7-3-16-2c0.8-3.6-0.7-5.8-1-7h-1
			c0.8,1.5,0.4,4.7-2,5c-0.2-1.3-2-2.6-4-3c-8.1,0.4-9.1,15.4-16,15c-1.4,0.4-2.7-0.6-3,1c-2,6.3-4.6,13.9-5,14c0.9,0.1,1,0.8,1,2
			c-0.2-0.5-0.2-0.5,0,0c-1.8,0.8-0.5,3,0,3h4c0.2,0-0.7-1.9-1-3c-0.2-0.1-0.5-0.3-1,0c1-3.1,4.3-11.5,6-12c7.8-0.9,13.8-4.4,17-7
			c-1.2,2.3-2.6,3.8-3,4c-1.4,1.5-1,2.1,0,3c0.9,1,3.1,2.7,7,7c-1,0.7-1.5,1.1-2,2c-0.3,0.4,0.8,2.9,2,4c0.3,0.1,1.8-3.1,2-3
			c0.3-1.4,0.2-1.7,0-2v-1c0-0.2-5-8.3-5-8l9-8c2,0.9,9.8,5,17,4c3.7,1.1,12.5,2.2,12,2l-1,1c0.4,0.4-0.3,4.3-2,8v1
			c-1.1-0.4-2.2-0.4-3,0c-0.8,0.6-1.8,2.5-2,4c0.4,0.4,3.7-1,4-1c0.9-0.5,1.1-0.7,1-1c0.7-0.4,1.3-0.6,1-1c0.7-0.1,2.8-5.8,6-11
			C367.1,62.2,367,61.7,367,62z M294,73c-0.4-0.3-0.2-0.8,0-1c-0.4-0.4-3.9-5.2-7-11c0.2-0.1-0.2-1-1-1c-3.7-1.7-11.4-4.6-16-9
			c-2-2.4-3-3.8-3-5c-0.2,0.4-2.2,4.9,0,9l-2-2c-2.8-0.7-8.2-2.6-15-2c0.1-1.4,0.4-3.6,0-5c-0.3,0.4-2.9,4.9-8,1
			c-2.4-1.9-6.9-1.4-8,4c-2.2,7.3-7.4,9.7-11,10c0,0.6-0.2,0.7,0,1l-7,14c-0.1-0.3-1.1-0.1-2,0c-0.8,0.5-1.3,3.2-1,5
			c0.2,0,3.2-1.8,4-2c0.7-0.8,0.5-1.7,0-2h1l8-11c6-1.5,10.7-3.5,15-6c-0.7,0.6-1.2,1.2-2,2c-1.3,0.9-1.1,1.4-1,2c0.4,0.1,5,5.3,7,9
			c-0.1,0.7-0.6,1.1-1,2c-0.6,0.3,0,2.8,1,4c0.4,0.2,2.2-2.8,2-3c0.8-1,0.8-1.2,1-2c-0.1-0.2,0.3-0.6,0-1l-5-9c2.2-1.1,5.4-4.5,8-7
			c1.8-0.1,3.5,0.6,5,1c3.3,0.9,9.5,5.2,18,4c3.5,0,9,1.3,12,2v2c0.1-0.4,3,2.4,5,6c-0.3,0.2,0.2,0.5,1,1c-0.8,0.2-1.7,1-2,2
			c0.1,1,2.1,2.9,4,3c-0.1,0.5,0-3.1,0-3C294,73.7,293.9,73.4,294,73z M382,37c-0.9-0.1-2.5-1.9-4-4c-0.8-0.6-2.3-2.5-3-3v4
			c0.5,0.6,4.2,3.6,4,4c1.2,0.5,0.6,1.4,0,1c-1.2-0.2-1.8,1.7-2,2c0.4,0.1,0.7,1,2,1c0.4,0,0.7-0.4,1,0l1-1c0.2,0.4,0.3-0.9,1-1
			C382.4,38.4,381.7,37.2,382,37z M368,38c0.6,0.8,1,1.6,1,2c0.4,0.3,7,0.8,7,1l-6-3l-1-5c-0.2,0-0.2,0,0,0c-5.8,1.5-14.6,8.4-17,11
			c7.3,3.1,5.6,12.5,12,14c2.9,0.6,5.9,0,8,0h-1c0.5,0.5,0.9,4.2,0,8v1c0,0.1-1.2-0.4-2,0c-0.9,0.4-2.2,2.1-2,4c-0.2,0,3.2-0.8,4-1
			c0.5-0.2,0.6-0.4,1-1c-0.1-0.1,1.2-1,1-1c0.4-0.6,0.8-6.5,2-13c0.3,0.1,0.1-0.2,0,0l-13-3C361.9,51.8,363.8,40,368,38z M128,52
			c7.2,1.3,10.6-4.1,11-4c-2.6,1.1-7.7,2-8,1c8.2-6.2,16.3-5.3,19-5l1-1c-2.2-1.5-5-3-9-3c-8.2,0-11.1,4.7-17,5c-3.1-0.2-5.6-3-6-3
			C119,42.2,120.2,50.2,128,52z M209,55c-0.2-0.7-0.4-1-1-1h-14c-0.7,3.4,2.1,5.9,4,6c2.6-0.6,5.7-1.7,8-3v1c-0.3,0.3,0.7,5.3,1,9
			c-0.8,0.2-1.6,0.2-3,1c-0.3,0.1-1.3,2.1-1,4c0,0,3.2-1.4,4-2c0.5,0,0.7-0.3,1-1c0.2-0.7,1-1.5,1-2C209.1,66.9,208.4,60.9,209,55z
			 M199,78c-0.9-1.4-2.5-4.3-3-7c-4.2-6.9-2.6-16.1-3-16c-0.6-0.1-2.2,0.1-3,2c-3.1-5.5-6.4-8.6-14-9c-0.4,0.4,1.6,2.4,5,6
			c-6.4-1.8-14-2.1-18-2c1-1.7,1.5-3.3,2-4c-0.4-0.1-2.8,2.7-6,3c-5.5-0.3-1.5-6-4-6c-3.7,0-6.7,3.1-7,7c-0.5,8.8-5.7,10-8,10
			c-1.4,0-1.8,0.3-2,1c-0.7,0.2-8.1,9.2-11,12c-0.2,0.1-1.1,0.1-2,0c-1.5,0.2-2,2.9-2,5c0-0.3,3.2-1.3,4-1c0.4-0.7,0.8-1.3,1-2
			c1.7-0.8,9.5-8.5,11-9c7.7-1.7,14-4.9,18-8c-0.2,2.2-1,3.6-2,5c-1,0.6-0.6,1.2,0,2c1.7,1.4,5.1,4.6,8,8c-0.1,1-0.5,1.8-1,3
			c0.4,0.6,2.3,2.4,4,3c0.1-0.2,0-3.7,0-4c-0.1-1.1-0.2-1.3-1-2c0.5,0,0.8-0.4,1,0l-6-9c1.8-1.6,4.9-6.5,7-9c5.2,1,12.3,5.6,19,5
			c0.2-0.1,4,5.9,6,9c1.6,2.2,3.3,5.5,4,7c0.1,0.1,1,0.1,2,1c-0.4,0.1-0.5,0.4,0,1c-0.5,1.2,0,2,0,2h5c-0.4-0.6-2-2.6-2-3
			C200.3,78.6,199.9,78.3,199,78z M282,78c-1.6-1.4-3.2-4.3-4-7c-0.3,0.1-0.5-0.4-1-1c-0.9-1.8-1.2-3.1-2-6c-1.2,0.7-4.7,0.6-7,0
			c0.1,0.2,4.2,4.6,6,7c2,2.2,3.4,5.2,4,7c0.4,0,1,0,2,1c-0.5-0.3-0.8,1.3,0,3c0.1,0,5,0,5,0c-0.5-0.9-1.5-2.3-2-2
			C282.9,78.9,282.4,78.4,282,78z M249,38c-8.6,0-10,4-10,4c2.8-0.8,6.5-1.5,10-1c4.4-0.5,7.9,0.2,11,0c4,0.2,5.4-1,6-2
			c-1-0.1-2,0.3-5,0C256.8,39.3,253.7,38,249,38z M243,31c9.2-1.6,15.5,1.2,18,2c-4.7-2.7-10.4-5.5-21-3c-12.4,2.8-13.1,6-29,7v2
			C228,37.7,231.2,32.9,243,31z M261,36c0-0.4,2.9,2.6,7,2c2.4-0.7,6.6-4.5,12-9c0,0.4-1-1-4-1c-3.2,0-9,3.3-14,3
			c2.9,2.8,6.4,3.6,7,3C267.4,37,261,35.6,261,36z M283,29c1.9-0.4,3.1-0.9,5-1c2.4,0.1,4,1,4,1c0-0.3-0.2-1.8-1-3
			c0.1-0.6-0.6-1.1-1,0c-0.2,0.3-0.4,0.7-1,1c0.2,0.6-0.5,0.6,0,0c-0.3-0.1,0.8-2-4-2c-4.6,0-6.9,1.2-9,0
			C278.7,28.1,281.5,28.6,283,29z M214,52c8.9,1.4,12.4-5.6,19-8c-3.5-1.4-8.3,1.1-8,1c6.8-4.2,9.6-3.2,13-2c-0.7-1.3-1.9-2.3-4-3
			c-9-1.5-12,5.8-22,4c0,0,1.5,3.3,5,3c0,0.5-5.1,2.2-9,1C208,48,209.8,50.9,214,52z M194,29c6.8-1.5,10.1-3.3,14-1c0,0.3,0-2-1-3
			c0.1-0.3-0.6-0.4-1,1c-0.8,0.6-1.1,0.4-1,0c-0.2-0.5,0.1-1.9-2-2c-4.3-0.1-10.6,3.5-16,0C187,24.4,189.6,28.9,194,29z M202,31
			c-9.4,4.5-12.3,11-14,14c5.4,2.9,6.5,8,7,8c-0.5,0,2.5-12.9,5-16c1.2,1.4,5,3.9,5,4l-3-5V31z M209,41c-0.1,0.9-1.1,1.4-2,1
			c-0.5-1-2,0.4-2,0c0,0.9-0.2,1.8,1,2c0.5,0.6,1,0.4,1,0l1,1c0.5,0,1.2-1.1,2-1c1.1-1.1,1-2.5,1-3c-0.7-0.4-2.1-6.2-2-9
			c-0.6,0-0.7-0.5-1-1c0.2,0,0,0,0,0c-1.4,2.6-2,3.7-2,4C206.3,35.2,208.4,40.6,209,41z M296,39c0.1,1-0.6,1.7-1,1
			c-1.2-0.4-2.3,1.3-2,1c-0.2,0.7-0.2,1.6,1,2c0.5,0.1,0.9-0.3,1,0h1c0.4,0,0.8-1.2,1-2c1.3-0.5,0.9-1.8,1-2c-0.8-0.5-3.4-5.6-4-8
			c-0.3-0.2-0.5-0.6-1-1c-0.7,2.7-1,3.8-1,4C292.4,34.3,295.4,38.9,296,39z M361,30c2.3,0.1,3.3-0.6,6-1c3.9-1.4,7,0.1,7,0
			c0-0.2-0.6-2.2-1-3c-0.4-0.6-1-0.6-1,0c-0.3,0.3-0.7,1.4-1,1c0.2,0.7-0.1,0.7,0,0c-0.6-0.3-1.1-2.2-3-2c-12.4,1.9-14,0-14,0
			C355.7,27.2,358.5,29.8,361,30z M347,38c3.5-0.3,10.8-5.8,13-6c-2.6-0.4-3.3-1.1-6-1c-5.4,0.4-6.7,5-13,3
			C341.5,35.4,344.7,38.2,347,38z M286,38c-0.3,0-0.1,0.6,0,1c0.1,0.2,6,2.4,6,2l-4-4l-1-4v-1c-5.2,1.6-9.3,8.8-15,12
			c6.3,3.5,8.3,9,9,11c0.5,0,1.7-1.6,2-6C283,44.4,281,41.6,286,38z M318,30c12.5,2.1,22.7,8.4,26,11c-3.6,0.9-8.8-1.9-15-1
			c-4.8,0.3-7.4,1.9-9,3h1c2.5-0.7,5-1.2,10-1c4.4-0.2,7.5,0.6,10,1c4.8,0.3,5-2.6,5-3c0,0.4-13.1-9.2-28-11c-15.4-2.4-23,0.8-23,1
			v1C295.4,31,302.3,28.2,318,30z M319,43C319,42.8,319,42.7,319,43c-1.5-0.7-3.1-1-5-1c-11.9,0-12.6,8.5-23,9c-0.6-0.5-2.6-0.8-3-1
			v1c0-0.5,0-0.5,0,0c1.5,1,5.5,3.9,12,4c7.6,0.1,11.9-6,12-6c-1.8,1-9,4-10,3C308.3,45.4,316.4,43.4,319,43z M184,37
			c2-2,4.8-4.7,8-6c-0.3-1.2-2.2-2-4-2c-7.1,0-8.5,7-17,5C173.9,37.7,177.7,39.1,184,37z M100,24h6l4,4c-0.2,0.4,2.3-4.7,3-6
			c0.6-1.5,0.5-3.2-3-4c-1.1,0.3-2.3,0.3-3,0l1-3l3,2h8c0.1,0.4,0.5,0,0,0l1-1c8.8-4.1,27.7,23.9,48,18c-21.9,1.6-38.4-22.8-49-19
			h-1c-1.5-0.4-2.3,0.3-2,0h-3l-1-1h2l3-1h1c1,0.1,2.3,0.2,2,0c1.1,0.2,1.8-0.4,2-1v-1c16.4-2.2,39.5,21.4,52,21
			c-9.7,0-35.3-25.2-53-22h-2c-0.1,0.4-0.6,1.5-2,1c-1.8,0.4-6.1-0.7-6-1c-0.1,0.3-0.7-1.1-1-1c0.2-0.4,0.3-1.1,1-1
			c-0.3-0.1,0.8,0,1,0c0.2,0,0.3-0.1,0,0c0.5-0.7,0.7-1.2,1-2c0-0.8,0.1-1.4,0-1c0.1-0.4,2.5-0.4,3,0c-0.1-0.4,0-0.5,0-1
			c-0.2-0.2-0.7-1.3-3-1V0c-0.6-0.1-4.6-0.4-5,2c0.9-0.8,4-1.3,4,0v1c-3.3-0.5-7.1-0.2-7,1c-0.5,0.5,2,1,3,1c-0.2,0.2-0.6,1.7-1,2
			l1,2c0.4-0.4,1.6,2.1,3,4c0.3,1.4-5-2.3-5-2c-0.8,0.3,0.2,1.7,0,2c0.8,1.1,0.4,1.1,0,1c0.1,0.4-3.1,1.9-5,3h-2
			c1.2-1.4,2.4-4.1,3-5c0.7-1-0.9-0.6-2,1c-0.2,0.4-1.9,2.8-3,4v3C96.9,22,98.4,23.5,100,24z M86,3L75,2c-0.3-1-1.7-1.9-3-2
			c-2.8-0.1-4.9,1.9-5,4c7.5,0.8,14,1.4,19,2V3z M47,8c1.8,0.1,2.6,1,3,2c0-0.1,0.4-0.1,1,0V8c8,0.2,17.9,0.5,23,1
			c1.5,0.1,1.7,1.2,2,2c-0.3-0.1,0.6,0,1,0V9c6.1,0.6,12.1,1.2,18,2c0-0.7,0-1.2,0-2c-3.7-0.3-15.7-2.2-32-3C46.4,5.6,34.4,6.6,30,7
			c0,0.5,0,1,0,2C35.9,8.3,41.4,8.2,47,8z M172,40c-7.1-1.8-16.3-1.4-20,4c2.3-1.4,9.5-3.9,19-2c7.7,1.4,12-2.6,12-3
			C183,39.5,177.7,41.3,172,40z M64,4V0H54c-0.6,0-1.3,0.5-2,1H41c-1.1-0.1-1.9,0.7-2,2v1c3.7-0.2,8.3-0.3,14,0
			C56.7,3.7,63.5,3.9,64,4z M113,65c-1.2,10.6-10.3,18-20,17c-4.3-0.5-7.9-1.9-12-6c1.2-1.4,3.2,2.6,12,3c8.5,1.3,16.3-5.2,17-14
			c1.1-8.5-5.2-16.3-14-17c-0.6-0.3-1.4-0.3-2,0c-0.5,1.6-2,4.2-4,6c-0.1,0.2-0.8-1-1-1c-1.5-2.6-2.3-3.4-3-3c-0.2,0.1,0.2,1.3,2,4
			c-0.2,0.3,0.5,1.5,0,2c0.5-0.4-0.9,0.7-2,2c-0.2-0.4-1.9-1.4-3-2c-1.4-0.7-2.4-0.9-3,0c0.2-0.1,0.8,0.6,2,2c0.9,0,2,0.7,2,1
			c-1.6,0.7-3.9,1.7-6,2c-0.3,1.5-0.4,2.8,0,4c-0.4,1.5-1.1,1.5-2,2c-0.1-1.7-0.1-3.3,0-5c1.2-10.6,10.3-18,20-17
			C106.6,46.2,114,55.3,113,65z"/>
	</g>
		<defs>
		<filter id="Adobe_OpacityMaskFilter" filterUnits="userSpaceOnUse" x="0" y="0" width="382" height="82">
			<feColorMatrix type="matrix" values="1 0 0 0 0  0 1 0 0 0  0 0 1 0 0  0 0 0 1 0"/>
		</filter>
	</defs>
		<mask maskUnits="userSpaceOnUse" x="0" y="0" width="382" height="82" id="b_1_">
		<g class="st1">
			<path id="a_1_" class="st0" d="M121,30c-0.9-0.2-1.5,0-2,0c-0.1,0.6-0.8,0.8-1,1h-3l10-10c0.1-0.1,0.1-1,0-2
				c-0.8,0.1-1.2-0.1-2,0l-19,19c0-0.1-0.9-1.3,1-3c0.2-0.5,2-2.2,4-4l-14-1v-9c0.4-0.5-2.9,2.1-3,7c-0.2,1.7-0.4,6,0,9
				c-0.5,2.6-1.3,5.1-2,6c1.5-0.3,3-0.5,5-1h4c10.2,0.8,13.3-1.4,17-4c2.1-2.3,8.2-8.1,8-8H121z M86,44v-1c-5.1,2.1-11.5,3-19,3
				c-7.7-0.6-14.6-1.3-20-3c1.9,2.2,3.4,4.7,4,7c2.6,0.7,4.9,1,7,1C78.3,51,85.8,44.6,86,44z M36,56c0.1-0.1,2.8-1.7,4-2
				c2.5-2,3.9-3,4-4c0,0.3,0,0.2,0,0c-0.2,0-0.5-0.5-5,2c-0.9,0.5-3.9,2.3-4,2C35.4,54.9,35.7,55.4,36,56z M34,53
				c3.2-5.7,3.2-6.7,3-7c-0.6-0.2-1.5,0.3-5,6C32.6,52.3,33.2,52.6,34,53z M28,57c-1,0.2-1.8,1-2,2c-0.2,1.8,1.2,3.3,3,3
				c1-0.2,1.8-1,2-2C31.2,58.2,29.8,56.8,28,57z M26,65c-1.8-1.5-2.8-3.3-3-5c0.2-3.7,2.8-6.4,6-6c0.3-0.4,0.8-0.3,1,0
				c0-0.3,0.1-0.6,0-1c-0.7,0.1-1.3,0-2,0c-3.3,0-6,2.8-6,6C22,61.7,23.4,64,26,65C26,65.1,26.1,64.8,26,65z M29,51
				c0.4-0.1,0.7,0,1,0v-2c0-0.8,0-2.8,0-5c-0.3-2.6-0.6-3-1-3c-0.4,0-0.7,0.4-1,3c0,2.2,0,4.3,0,6v1C28.3,51,28.7,50.9,29,51z
				 M50,54c3.9,14.7-7,28-22,28C14.2,82,8.6,70.2,9,70c2.6-0.9,5.7,9.4,19,9c8.7,0.4,15.8-4.7,19-12c0.9-2.2,1.5-5.3,1-8
				c0.4-1.7,0.1-3,0-3c-0.2-0.8-0.4-1-1-1c-0.2,0.1-0.5,0.5,0,1c-0.4,0.3,0,2.8-1,7l-9-3c-0.1,1.3-0.3,2.2-1,3c2.4,1.3,4.6,2.8,4,3
				c0.1,0.8-2.3-0.4-5-2c-0.1,1.2-0.8,1.9-2,2c1.6,2.5,2.5,4.1,3,4c0.6,2,2.2,4.7,2,5c-1.2,0.6-2.7-2.2-4-4c0.2-0.1-0.8-1.7-2-4
				c-0.8,0.6-1.8,0.9-3,1v4c0.3,2.4,0.3,5.6-1,6c-0.4-0.4-0.3-3.5,0-6c-0.3,0.2-0.3-1.7,0-4c-1.3-0.1-2.2-0.4-3-1
				c-1.3,2.3-2.2,3.9-2,4c-1.3,1.8-2.8,4.6-4,4c-0.3-0.3,1.3-2.9,2-5c0.4,0.1,1.4-1.5,3-4c-1.2-0.1-1.9-0.8-2-2
				c-0.7,0.5-1.9,1.2-2,2c-1.9,0.3-3.4,1-4,1c0-1,1.3-2,3-3c0.4-0.2,1.5-0.9,2-1c-0.8-1.1-1.1-2.3-1-4c-0.1-3,2.1-6.1,5-7l-1-2
				c-0.2-0.7-1.2-2.4-2-4c-1.7-2.3-2.2-2.4-3-2c0.3-0.2,0,0,1,3c0.4-0.1,1.5,2,1,2c0.5,0-3.2-1.8-8-2c-2,1.3-3.8,3.8-5,7
				c-0.3,1.6-0.5,3.2-2,3c0-9.1,11-22.7,27-20C41.6,39.1,48.3,45.5,50,54z M61,56c-3.2-0.5-5.7-0.8-8-1c0.3,1.4,0.4,2.9,0,5
				c0.4,0.9,0.3,2.3,0,4c3.2-0.1,6.9,0.1,11,0c3.5-0.3,6.7-0.7,10-1c-0.3-3.4,0.6-6.4,2-9C71.8,55.2,66.7,55.8,61,56z M68,19v-3
				c-2.1,0.3-4.4,0.2-6,0c-2.3,0.1-4.9,0-7,0l-1,27c0,0,1.5-0.2,2-3c-0.3,0.3,0.2-10,0-10h10l2-1l-9-1C59.7,24.2,60.9,19,68,19z
				 M8,40c0,0,14-7.3,21-15v-4c-1.9,2.9-7.2,9.5-21,18V40z M7,46H0v-4c23.2-15.6,30.4-29.8,30-30c2.8-0.6,18.7-1.3,33-1
				c13.9,0.6,29.3,2.6,32,3c0,0.7,0,2.3,0,3c-4.1-1.1-16.4-2.6-32-3c-12.8-0.6-24.3-0.2-30,0v21c-1.8-0.3-3.1-0.4-4,0
				C19.7,34.6,11.9,39.1,7,46z M49,18c0.6-0.5,1.2-0.8,2-2c-5.5,0-8.2,0-13,0l-1,18c3.3,2.6,8.9,4.4,14,5v-1c-7.3-0.9-7.4-7-7-9
				c-0.4-1.2,0.5-0.6,1-1c0.9,0.1,1.4-1.2,1-2c0.4-1.8,0.1-2.1,0-2c0.1-0.8,0.3-0.9,0-2c0.3-0.6-0.3-1.2-2-1c-4-0.2-3.3,3-3,5
				c-0.3,1.5-1.3,2.3-2,3V18C39.2,18.2,48,17.6,49,18z M85,19c1.4,0.4,2.3,0,3-1c-3.9-0.2-8.9-0.6-14-1l-1,23c4.7-0.3,10.5-1.7,14-3
				c-0.3-0.2,0.7-4.7,1-13c-0.5-0.1-1.3-1.1-3-1c-1.9-0.1-3,0.5-3,2c0,0.2,0.3,0.3,0,1c0.3,0-0.1,0.3,0,2c-0.1,0.9,0.2,2.2,1,2
				c0.7,0.5,1.8,0,2,1c0.8,1.5,0.2,3.1-1,4c-1.1,1-3.5,2.6-9,3l1-19C75.5,19.2,84.1,19.4,85,19z M90,63c0,1.8,0.7,3.1,2,4
				c-0.1,0-0.1,0,0,0c0,0,0,0,0,0c0.1-0.1,0.1-0.2,0,0c-0.8-1-1.2-2.1-1-3c-0.2-2.6,1.8-4.6,4-5c0.4,0.4,0.6,0.4,1,0
				c-0.1,0.5-0.1,0.5,0,0c-0.1,0.5,0,0.4,0,0c0,0.3,0,0.3,0,0c-0.6,0.1-1,0-2,0C92,59,90,61,90,63z M96,63c0-0.3-0.7-1-1-1
				c-1.3,0-2,0.7-2,1c0,1.3,0.7,2,2,2C95.3,65,96,64.3,96,63z M89,66c-0.8-0.5-0.9-1.2-1-2c0.1-3,2.3-5.5,5-6c0.2-1.9,0.4-3.7,1-4
				c0.4,0.3,0.6,2,1,4c0.3,0,0.8,0.1,1,0c1.1-0.8,1.6-1.7,2-2c0.7-1.6,2.2-4.4,3-4c0.7,0.5-0.9,3.2-2,5c0,0.1-0.5,1-1,2
				c0.3,0.4,0.7,0.8,1,1c1.9-0.7,3.9-1.7,4-1c0.5,0.3-1.3,1.5-3,3c0,0.2,0.2,0.7,0,1c1.6,0.3,2.6,0.3,3,0c1.8,0.3,5,0.2,5,1
				c0,0.9-3.2,0.9-5,1c-0.4-0.1-1.5-0.1-3,0c0.1,0.4-0.1,1,0,1c0.9,1.1,1.8,1.7,2,2c1.7,0.7,4.5,2.3,4,3c-0.3,0.8-3-0.9-5-2
				c0,0-0.9-0.5-2-1c-0.5,0.2-0.9,0.6-1,1c0.4,1.1,0.9,2.1,1,2c1,2,2.7,4.7,2,5c-0.8,0.6-2.3-2.2-3-4c-0.4-0.1-1-1.1-2-2
				c-0.2-0.2-0.7-0.1-1,0c-0.3,1.4-0.3,2.6,0,3c-0.3,1.8-0.2,5-1,5c-0.9,0-0.9-3.1-1-5v-3c-0.4-0.2-0.8-0.3-1-1c-1,1.8-1.7,2.9-2,3
				c-0.8,1.8-2.3,4.6-3,4c-0.8-0.3,0.8-3,2-5c-0.1,0.1,0.6-1,1-2c0-0.6-0.4-1-1-1c-1.4,0.6-3.6,1.8-4,1C84.7,68.5,86.8,67.3,89,66z
				 M367,62c-0.7-0.6-7.7-4.1-13-7c-4.7-2-5.7-6.1-5-11c-2.9,3.2-3,7.4-3,9c-1-0.3-7-3-16-2c0.8-3.6-0.7-5.8-1-7h-1
				c0.8,1.5,0.4,4.7-2,5c-0.2-1.3-2-2.6-4-3c-8.1,0.4-9.1,15.4-16,15c-1.4,0.4-2.7-0.6-3,1c-2,6.3-4.6,13.9-5,14c0.9,0.1,1,0.8,1,2
				c-0.2-0.5-0.2-0.5,0,0c-1.8,0.8-0.5,3,0,3h4c0.2,0-0.7-1.9-1-3c-0.2-0.1-0.5-0.3-1,0c1-3.1,4.3-11.5,6-12c7.8-0.9,13.8-4.4,17-7
				c-1.2,2.3-2.6,3.8-3,4c-1.4,1.5-1,2.1,0,3c0.9,1,3.1,2.7,7,7c-1,0.7-1.5,1.1-2,2c-0.3,0.4,0.8,2.9,2,4c0.3,0.1,1.8-3.1,2-3
				c0.3-1.4,0.2-1.7,0-2v-1c0-0.2-5-8.3-5-8l9-8c2,0.9,9.8,5,17,4c3.7,1.1,12.5,2.2,12,2l-1,1c0.4,0.4-0.3,4.3-2,8v1
				c-1.1-0.4-2.2-0.4-3,0c-0.8,0.6-1.8,2.5-2,4c0.4,0.4,3.7-1,4-1c0.9-0.5,1.1-0.7,1-1c0.7-0.4,1.3-0.6,1-1c0.7-0.1,2.8-5.8,6-11
				C367.1,62.2,367,61.7,367,62z M294,73c-0.4-0.3-0.2-0.8,0-1c-0.4-0.4-3.9-5.2-7-11c0.2-0.1-0.2-1-1-1c-3.7-1.7-11.4-4.6-16-9
				c-2-2.4-3-3.8-3-5c-0.2,0.4-2.2,4.9,0,9l-2-2c-2.8-0.7-8.2-2.6-15-2c0.1-1.4,0.4-3.6,0-5c-0.3,0.4-2.9,4.9-8,1
				c-2.4-1.9-6.9-1.4-8,4c-2.2,7.3-7.4,9.7-11,10c0,0.6-0.2,0.7,0,1l-7,14c-0.1-0.3-1.1-0.1-2,0c-0.8,0.5-1.3,3.2-1,5
				c0.2,0,3.2-1.8,4-2c0.7-0.8,0.5-1.7,0-2h1l8-11c6-1.5,10.7-3.5,15-6c-0.7,0.6-1.2,1.2-2,2c-1.3,0.9-1.1,1.4-1,2
				c0.4,0.1,5,5.3,7,9c-0.1,0.7-0.6,1.1-1,2c-0.6,0.3,0,2.8,1,4c0.4,0.2,2.2-2.8,2-3c0.8-1,0.8-1.2,1-2c-0.1-0.2,0.3-0.6,0-1l-5-9
				c2.2-1.1,5.4-4.5,8-7c1.8-0.1,3.5,0.6,5,1c3.3,0.9,9.5,5.2,18,4c3.5,0,9,1.3,12,2v2c0.1-0.4,3,2.4,5,6c-0.3,0.2,0.2,0.5,1,1
				c-0.8,0.2-1.7,1-2,2c0.1,1,2.1,2.9,4,3c-0.1,0.5,0-3.1,0-3C294,73.7,293.9,73.4,294,73z M382,37c-0.9-0.1-2.5-1.9-4-4
				c-0.8-0.6-2.3-2.5-3-3v4c0.5,0.6,4.2,3.6,4,4c1.2,0.5,0.6,1.4,0,1c-1.2-0.2-1.8,1.7-2,2c0.4,0.1,0.7,1,2,1c0.4,0,0.7-0.4,1,0l1-1
				c0.2,0.4,0.3-0.9,1-1C382.4,38.4,381.7,37.2,382,37z M368,38c0.6,0.8,1,1.6,1,2c0.4,0.3,7,0.8,7,1l-6-3l-1-5c-0.2,0-0.2,0,0,0
				c-5.8,1.5-14.6,8.4-17,11c7.3,3.1,5.6,12.5,12,14c2.9,0.6,5.9,0,8,0h-1c0.5,0.5,0.9,4.2,0,8v1c0,0.1-1.2-0.4-2,0
				c-0.9,0.4-2.2,2.1-2,4c-0.2,0,3.2-0.8,4-1c0.5-0.2,0.6-0.4,1-1c-0.1-0.1,1.2-1,1-1c0.4-0.6,0.8-6.5,2-13c0.3,0.1,0.1-0.2,0,0
				l-13-3C361.9,51.8,363.8,40,368,38z M128,52c7.2,1.3,10.6-4.1,11-4c-2.6,1.1-7.7,2-8,1c8.2-6.2,16.3-5.3,19-5l1-1
				c-2.2-1.5-5-3-9-3c-8.2,0-11.1,4.7-17,5c-3.1-0.2-5.6-3-6-3C119,42.2,120.2,50.2,128,52z M209,55c-0.2-0.7-0.4-1-1-1h-14
				c-0.7,3.4,2.1,5.9,4,6c2.6-0.6,5.7-1.7,8-3v1c-0.3,0.3,0.7,5.3,1,9c-0.8,0.2-1.6,0.2-3,1c-0.3,0.1-1.3,2.1-1,4c0,0,3.2-1.4,4-2
				c0.5,0,0.7-0.3,1-1c0.2-0.7,1-1.5,1-2C209.1,66.9,208.4,60.9,209,55z M199,78c-0.9-1.4-2.5-4.3-3-7c-4.2-6.9-2.6-16.1-3-16
				c-0.6-0.1-2.2,0.1-3,2c-3.1-5.5-6.4-8.6-14-9c-0.4,0.4,1.6,2.4,5,6c-6.4-1.8-14-2.1-18-2c1-1.7,1.5-3.3,2-4c-0.4-0.1-2.8,2.7-6,3
				c-5.5-0.3-1.5-6-4-6c-3.7,0-6.7,3.1-7,7c-0.5,8.8-5.7,10-8,10c-1.4,0-1.8,0.3-2,1c-0.7,0.2-8.1,9.2-11,12c-0.2,0.1-1.1,0.1-2,0
				c-1.5,0.2-2,2.9-2,5c0-0.3,3.2-1.3,4-1c0.4-0.7,0.8-1.3,1-2c1.7-0.8,9.5-8.5,11-9c7.7-1.7,14-4.9,18-8c-0.2,2.2-1,3.6-2,5
				c-1,0.6-0.6,1.2,0,2c1.7,1.4,5.1,4.6,8,8c-0.1,1-0.5,1.8-1,3c0.4,0.6,2.3,2.4,4,3c0.1-0.2,0-3.7,0-4c-0.1-1.1-0.2-1.3-1-2
				c0.5,0,0.8-0.4,1,0l-6-9c1.8-1.6,4.9-6.5,7-9c5.2,1,12.3,5.6,19,5c0.2-0.1,4,5.9,6,9c1.6,2.2,3.3,5.5,4,7c0.1,0.1,1,0.1,2,1
				c-0.4,0.1-0.5,0.4,0,1c-0.5,1.2,0,2,0,2h5c-0.4-0.6-2-2.6-2-3C200.3,78.6,199.9,78.3,199,78z M282,78c-1.6-1.4-3.2-4.3-4-7
				c-0.3,0.1-0.5-0.4-1-1c-0.9-1.8-1.2-3.1-2-6c-1.2,0.7-4.7,0.6-7,0c0.1,0.2,4.2,4.6,6,7c2,2.2,3.4,5.2,4,7c0.4,0,1,0,2,1
				c-0.5-0.3-0.8,1.3,0,3c0.1,0,5,0,5,0c-0.5-0.9-1.5-2.3-2-2C282.9,78.9,282.4,78.4,282,78z M249,38c-8.6,0-10,4-10,4
				c2.8-0.8,6.5-1.5,10-1c4.4-0.5,7.9,0.2,11,0c4,0.2,5.4-1,6-2c-1-0.1-2,0.3-5,0C256.8,39.3,253.7,38,249,38z M243,31
				c9.2-1.6,15.5,1.2,18,2c-4.7-2.7-10.4-5.5-21-3c-12.4,2.8-13.1,6-29,7v2C228,37.7,231.2,32.9,243,31z M261,36c0-0.4,2.9,2.6,7,2
				c2.4-0.7,6.6-4.5,12-9c0,0.4-1-1-4-1c-3.2,0-9,3.3-14,3c2.9,2.8,6.4,3.6,7,3C267.4,37,261,35.6,261,36z M283,29
				c1.9-0.4,3.1-0.9,5-1c2.4,0.1,4,1,4,1c0-0.3-0.2-1.8-1-3c0.1-0.6-0.6-1.1-1,0c-0.2,0.3-0.4,0.7-1,1c0.2,0.6-0.5,0.6,0,0
				c-0.3-0.1,0.8-2-4-2c-4.6,0-6.9,1.2-9,0C278.7,28.1,281.5,28.6,283,29z M214,52c8.9,1.4,12.4-5.6,19-8c-3.5-1.4-8.3,1.1-8,1
				c6.8-4.2,9.6-3.2,13-2c-0.7-1.3-1.9-2.3-4-3c-9-1.5-12,5.8-22,4c0,0,1.5,3.3,5,3c0,0.5-5.1,2.2-9,1C208,48,209.8,50.9,214,52z
				 M194,29c6.8-1.5,10.1-3.3,14-1c0,0.3,0-2-1-3c0.1-0.3-0.6-0.4-1,1c-0.8,0.6-1.1,0.4-1,0c-0.2-0.5,0.1-1.9-2-2
				c-4.3-0.1-10.6,3.5-16,0C187,24.4,189.6,28.9,194,29z M202,31c-9.4,4.5-12.3,11-14,14c5.4,2.9,6.5,8,7,8c-0.5,0,2.5-12.9,5-16
				c1.2,1.4,5,3.9,5,4l-3-5V31z M209,41c-0.1,0.9-1.1,1.4-2,1c-0.5-1-2,0.4-2,0c0,0.9-0.2,1.8,1,2c0.5,0.6,1,0.4,1,0l1,1
				c0.5,0,1.2-1.1,2-1c1.1-1.1,1-2.5,1-3c-0.7-0.4-2.1-6.2-2-9c-0.6,0-0.7-0.5-1-1c0.2,0,0,0,0,0c-1.4,2.6-2,3.7-2,4
				C206.3,35.2,208.4,40.6,209,41z M296,39c0.1,1-0.6,1.7-1,1c-1.2-0.4-2.3,1.3-2,1c-0.2,0.7-0.2,1.6,1,2c0.5,0.1,0.9-0.3,1,0h1
				c0.4,0,0.8-1.2,1-2c1.3-0.5,0.9-1.8,1-2c-0.8-0.5-3.4-5.6-4-8c-0.3-0.2-0.5-0.6-1-1c-0.7,2.7-1,3.8-1,4
				C292.4,34.3,295.4,38.9,296,39z M361,30c2.3,0.1,3.3-0.6,6-1c3.9-1.4,7,0.1,7,0c0-0.2-0.6-2.2-1-3c-0.4-0.6-1-0.6-1,0
				c-0.3,0.3-0.7,1.4-1,1c0.2,0.7-0.1,0.7,0,0c-0.6-0.3-1.1-2.2-3-2c-12.4,1.9-14,0-14,0C355.7,27.2,358.5,29.8,361,30z M347,38
				c3.5-0.3,10.8-5.8,13-6c-2.6-0.4-3.3-1.1-6-1c-5.4,0.4-6.7,5-13,3C341.5,35.4,344.7,38.2,347,38z M286,38c-0.3,0-0.1,0.6,0,1
				c0.1,0.2,6,2.4,6,2l-4-4l-1-4v-1c-5.2,1.6-9.3,8.8-15,12c6.3,3.5,8.3,9,9,11c0.5,0,1.7-1.6,2-6C283,44.4,281,41.6,286,38z
				 M318,30c12.5,2.1,22.7,8.4,26,11c-3.6,0.9-8.8-1.9-15-1c-4.8,0.3-7.4,1.9-9,3h1c2.5-0.7,5-1.2,10-1c4.4-0.2,7.5,0.6,10,1
				c4.8,0.3,5-2.6,5-3c0,0.4-13.1-9.2-28-11c-15.4-2.4-23,0.8-23,1v1C295.4,31,302.3,28.2,318,30z M319,43C319,42.8,319,42.7,319,43
				c-1.5-0.7-3.1-1-5-1c-11.9,0-12.6,8.5-23,9c-0.6-0.5-2.6-0.8-3-1v1c0-0.5,0-0.5,0,0c1.5,1,5.5,3.9,12,4c7.6,0.1,11.9-6,12-6
				c-1.8,1-9,4-10,3C308.3,45.4,316.4,43.4,319,43z M184,37c2-2,4.8-4.7,8-6c-0.3-1.2-2.2-2-4-2c-7.1,0-8.5,7-17,5
				C173.9,37.7,177.7,39.1,184,37z M100,24h6l4,4c-0.2,0.4,2.3-4.7,3-6c0.6-1.5,0.5-3.2-3-4c-1.1,0.3-2.3,0.3-3,0l1-3l3,2h8
				c0.1,0.4,0.5,0,0,0l1-1c8.8-4.1,27.7,23.9,48,18c-21.9,1.6-38.4-22.8-49-19h-1c-1.5-0.4-2.3,0.3-2,0h-3l-1-1h2l3-1h1
				c1,0.1,2.3,0.2,2,0c1.1,0.2,1.8-0.4,2-1v-1c16.4-2.2,39.5,21.4,52,21c-9.7,0-35.3-25.2-53-22h-2c-0.1,0.4-0.6,1.5-2,1
				c-1.8,0.4-6.1-0.7-6-1c-0.1,0.3-0.7-1.1-1-1c0.2-0.4,0.3-1.1,1-1c-0.3-0.1,0.8,0,1,0c0.2,0,0.3-0.1,0,0c0.5-0.7,0.7-1.2,1-2
				c0-0.8,0.1-1.4,0-1c0.1-0.4,2.5-0.4,3,0c-0.1-0.4,0-0.5,0-1c-0.2-0.2-0.7-1.3-3-1V0c-0.6-0.1-4.6-0.4-5,2c0.9-0.8,4-1.3,4,0v1
				c-3.3-0.5-7.1-0.2-7,1c-0.5,0.5,2,1,3,1c-0.2,0.2-0.6,1.7-1,2l1,2c0.4-0.4,1.6,2.1,3,4c0.3,1.4-5-2.3-5-2c-0.8,0.3,0.2,1.7,0,2
				c0.8,1.1,0.4,1.1,0,1c0.1,0.4-3.1,1.9-5,3h-2c1.2-1.4,2.4-4.1,3-5c0.7-1-0.9-0.6-2,1c-0.2,0.4-1.9,2.8-3,4v3
				C96.9,22,98.4,23.5,100,24z M86,3L75,2c-0.3-1-1.7-1.9-3-2c-2.8-0.1-4.9,1.9-5,4c7.5,0.8,14,1.4,19,2V3z M47,8c1.8,0.1,2.6,1,3,2
				c0-0.1,0.4-0.1,1,0V8c8,0.2,17.9,0.5,23,1c1.5,0.1,1.7,1.2,2,2c-0.3-0.1,0.6,0,1,0V9c6.1,0.6,12.1,1.2,18,2c0-0.7,0-1.2,0-2
				c-3.7-0.3-15.7-2.2-32-3C46.4,5.6,34.4,6.6,30,7c0,0.5,0,1,0,2C35.9,8.3,41.4,8.2,47,8z M172,40c-7.1-1.8-16.3-1.4-20,4
				c2.3-1.4,9.5-3.9,19-2c7.7,1.4,12-2.6,12-3C183,39.5,177.7,41.3,172,40z M64,4V0H54c-0.6,0-1.3,0.5-2,1H41c-1.1-0.1-1.9,0.7-2,2
				v1c3.7-0.2,8.3-0.3,14,0C56.7,3.7,63.5,3.9,64,4z M113,65c-1.2,10.6-10.3,18-20,17c-4.3-0.5-7.9-1.9-12-6c1.2-1.4,3.2,2.6,12,3
				c8.5,1.3,16.3-5.2,17-14c1.1-8.5-5.2-16.3-14-17c-0.6-0.3-1.4-0.3-2,0c-0.5,1.6-2,4.2-4,6c-0.1,0.2-0.8-1-1-1
				c-1.5-2.6-2.3-3.4-3-3c-0.2,0.1,0.2,1.3,2,4c-0.2,0.3,0.5,1.5,0,2c0.5-0.4-0.9,0.7-2,2c-0.2-0.4-1.9-1.4-3-2
				c-1.4-0.7-2.4-0.9-3,0c0.2-0.1,0.8,0.6,2,2c0.9,0,2,0.7,2,1c-1.6,0.7-3.9,1.7-6,2c-0.3,1.5-0.4,2.8,0,4c-0.4,1.5-1.1,1.5-2,2
				c-0.1-1.7-0.1-3.3,0-5c1.2-10.6,10.3-18,20-17C106.6,46.2,114,55.3,113,65z"/>
		</g>
	</mask>
		<g class="st2">
		<path class="st3" d="M0,0h382v82H0V0z"/>
	</g>
</g>
</svg>
